<svg xmlns="http://www.w3.org/2000/svg" viewBox="0 0 1280 391"><title>Rityta 1</title><g id="Lager_1" data-name="Lager 1"><rect y="386" width="1280" height="5" style="fill:#fff"/></g><g id="RollerCoaster"><rect x="143.2" y="279.24" width="4.38" height="112.3" transform="translate(290.77 670.79) rotate(-180)" style="fill:#fff"/><path d="M602.59,337.58c-36.41,1.8-72.92-13.12-125.42-109.38s-91.88-116.67-147.3-116.67S228.51,156,228.51,201.22s27.71,80.21,75.84,74.38,54-84.59-8.75-112.3-99.17-19-132.71,14.59-30.63,125.42,24.79,159S323.31,385,400.61,319.35s65.62-97.71,122.5-107.92,94.8,20.42,113.76,36.46S701,322.27,743.33,323.73s106.46-33.55,142.92-68.55,61.26-71.46,106.47-43.75,32.08,89-10.21,99.17-151.68,20.42-249.39-54S631,110.8,651.45,65.59s75.84-55.42,116.67-29.17,36.46,113.76-1.46,169.18S676.24,333.93,602.59,337.58Z" style="fill:none;stroke:#fff;stroke-miterlimit:10;stroke-width:5px"/><path d="M602.59,323c-36.41,1.8-72.92-13.13-125.42-109.38S385.29,97,329.87,97s-101.36,44.48-101.36,89.69,27.71,80.21,75.84,74.37,54-84.58-8.75-112.29-99.17-19-132.71,14.58-30.63,125.42,24.79,159,135.63,48.12,212.93-17.5,65.62-97.72,122.5-107.92,94.8,20.41,113.76,36.46S701,307.68,743.33,309.14,849.79,275.6,886.25,240.6s61.26-71.46,106.47-43.75,32.08,89-10.21,99.17-151.68,20.41-249.39-54S631,96.22,651.45,51,727.29-4.41,768.12,21.84,804.58,135.59,766.66,191,676.24,319.35,602.59,323Z" style="fill:none;stroke:#fff;stroke-miterlimit:10;stroke-width:2px"/><path d="M910.77,197.68l2.75,3.83a4.18,4.18,0,0,0,5.07,1.42l2.91,3.64,2.51-2-2.74-3.42,5-3.6,2.81,3.51,2.51-2-2.69-3.39.56-.4a4.24,4.24,0,0,0,1-5.9l-2.76-3.83a4.22,4.22,0,0,0-5.89-1l-10.06,7.23A4.23,4.23,0,0,0,910.77,197.68Z" style="fill:#fff"/><path d="M893.47,213.7l3.15,3.53a4.21,4.21,0,0,0,6,.34l0,0,2.87,3.61,2.51-2-3-3.75,5.25-4.7,2.52,3.15,2.51-2-2.73-3.42a4.19,4.19,0,0,0-.38-5.1L909,199.82a4.23,4.23,0,0,0-6-.33l-9.23,8.26A4.19,4.19,0,0,0,893.47,213.7Z" style="fill:#fff"/><path d="M878,230.68l3.49,3.18a4.23,4.23,0,0,0,5.85-.16l2.43,3,2.51-2-2.74-3.44,4.78-5.26,2.74,3.41,2.51-2-3.15-3.93a4.24,4.24,0,0,0-.9-5.07l-3.5-3.17a4.23,4.23,0,0,0-6,.29l-8.34,9.16A4.23,4.23,0,0,0,878,230.68Z" style="fill:#fff"/><path d="M861.11,245.26l2.95,3.69a4.2,4.2,0,0,0,5,1.24l3.22,4,2.51-2-3.14-3.94,5.49-4.39,2.43,3,2.51-2-2.43-3,0,0a4.21,4.21,0,0,0,.65-5.93l-2.94-3.69a4.24,4.24,0,0,0-5.94-.66l-9.67,7.74A4.21,4.21,0,0,0,861.11,245.26Z" style="fill:#fff"/><path d="M843.39,257.89l2.74,3.84a4.22,4.22,0,0,0,4.07,1.72l3.12,3.91,2.51-2-2.74-3.43,6.66-4.77,2.32,2.91,2.51-2-2.23-2.8a4.21,4.21,0,0,0,.71-5.69l-2.75-3.83a4.22,4.22,0,0,0-5.89-1L844.35,252A4.21,4.21,0,0,0,843.39,257.89Z" style="fill:#fff"/><rect x="940.94" y="204.87" width="4.38" height="186.67" transform="translate(1886.26 596.41) rotate(-180)" style="fill:#fff"/><rect x="862.19" y="274.87" width="4.38" height="116.67" transform="translate(1728.75 666.41) rotate(-180)" style="fill:#fff"/><rect x="795.1" y="118.82" width="4.38" height="272.72" transform="translate(1594.58 510.36) rotate(-180)" style="fill:#fff"/><rect x="729.47" y="257.37" width="4.38" height="134.17" transform="translate(1463.32 648.91) rotate(-180)" style="fill:#fff"/><rect x="640.51" y="120.28" width="4.38" height="272.72" transform="translate(1285.4 513.28) rotate(-180)" style="fill:#fff"/><rect x="561.76" y="210.7" width="4.38" height="182.3" transform="translate(1127.89 603.7) rotate(-180)" style="fill:#fff"/><rect x="465.5" y="245.7" width="4.38" height="147.3" transform="translate(935.38 638.7) rotate(-180)" style="fill:#fff"/><rect x="408.63" y="139.24" width="4.38" height="252.3" transform="translate(821.63 530.78) rotate(-180)" style="fill:#fff"/><rect x="340.08" y="231.12" width="4.38" height="161.88" transform="translate(684.54 624.12) rotate(-180)" style="fill:#fff"/><rect x="235.08" y="241.33" width="4.38" height="150.21" transform="translate(474.53 632.87) rotate(-180)" style="fill:#fff"/></g><g id="carousel"><path d="M1229.8,378H1197v-6.8a5.2,5.2,0,0,0-5.2-5.2H1177V335.36c3.51-.46,7.16-1.86,8-1.86,1,0,3,1,3,4s0,5-1,5a2.15,2.15,0,0,0-2,2c0,1,0,3,3,2s2-7,2-8-1-4,0-5,3,0,3,1v6c0,1-2,0-2,1s-2,5,1,5,4-3,4-5,1-9,0-11-5-2-6-3c-.71-.71-2-13,1.5-13.5,0,0,3,7,5,7s3.5-1.5,2.5-3.5-.5-6.5-.5-6.5l3-1s-4.58-4.49-10.5-3.5-12,8-12.5,12.5H1177V253.93A16.62,16.62,0,0,0,1191.81,240h2.53a4.65,4.65,0,0,0,4.66-4.66v-.68a4.65,4.65,0,0,0-4.66-4.66h-13.21l-98.92-76.73a6,6,0,0,0-3.21-10.18v-3.94a15.19,15.19,0,0,1,9-3.15c6,0,11,3,14,5s13,9,26,9,17-8,17-8a32.17,32.17,0,0,1-8,1c3-1,8-8,8-8s-7,4-18,4-15-6-18-8-8-6-17-6a25.14,25.14,0,0,0-13,3.33v-4.51a3,3,0,1,0-2,0v19.27a6,6,0,0,0-3.2,10.18L975.28,230H961.66a4.65,4.65,0,0,0-4.66,4.66v.68a4.65,4.65,0,0,0,4.66,4.66h2.53A16.6,16.6,0,0,0,980,254v65h-2c-.5-4.5-6.5-11.5-12.5-12.5S955,310,955,310l3,1s.5,4.5-.5,6.5.5,3.5,2.5,3.5,5-7,5-7c3.5.5,2.21,12.79,1.5,13.5-1,1-5,1-6,3s0,9,0,11,1,5,4,5,1-4,1-5-2,0-2-1v-6c0-1,2-2,3-1s0,4,0,5-1,7,2,8,3-1,3-2a2.15,2.15,0,0,0-2-2c-1,0-1-2-1-5s2-4,3-4,4.84,1.54,8.5,1.91V366H960.2a5.2,5.2,0,0,0-5.2,5.2V378H922.2a5.2,5.2,0,0,0-5.2,5.2v6.73a1.07,1.07,0,0,0,1.07,1.07h315.69a1.23,1.23,0,0,0,1.24-1.24V383.2A5.2,5.2,0,0,0,1229.8,378ZM1028,293h-.5c-.5-4.5-6.5-11.5-12.5-12.5s-10.5,3.5-10.5,3.5l3,1s.5,4.5-.5,6.5.5,3.5,2.5,3.5,5-7,5-7c3.5.5,2.21,12.79,1.5,13.5-1,1-5,1-6,3s0,9,0,11,1,5,4,5,1-4,1-5-2,0-2-1v-6c0-1,2-2,3-1s0,4,0,5-1,7,2,8,3-1,3-2a2.15,2.15,0,0,0-2-2c-1,0-1-2-1-5s2-4,3-4c.76,0,3.82,1.15,7,1.71V366H984V335.37c2.73-.26,4.72-.87,5.5-.87,1,0,4,1,4,2s-4,5-5,7,4,7,6,4-1-3-2-4,2-3,3-5,4-1,4,0-4,5-4,7,1,6,4,6,2-4,2-5-3,0-3-1,3.5-5.5,3.5-5.5c7,0,8-2,8-2s-4-2-5-5,2-6-1-9-7-1-7-1c-2-4-8-4-9-4h-4V253.62A16.64,16.64,0,0,0,996.81,240h.38a16.48,16.48,0,0,0,30.81,5.33Zm-29.5,32.5s2,0,2,1-2,6-1,7c0,0-2-1-2-2S999.5,326.5,998.5,325.5Zm65-71.5a3.52,3.52,0,0,0-3.5,3.5,3.5,3.5,0,0,0,3.5,3.5,3.52,3.52,0,0,0-3.5,3.5,3.5,3.5,0,0,0,3.5,3.5,3.52,3.52,0,0,0-3.5,3.5,3.5,3.5,0,0,0,3.5,3.5,3.52,3.52,0,0,0-3.5,3.5,3.5,3.5,0,0,0,3.5,3.5,3.52,3.52,0,0,0-3.5,3.5,3.5,3.5,0,0,0,3.5,3.5,3.52,3.52,0,0,0-3.5,3.5,3.5,3.5,0,0,0,3.5,3.5,3.52,3.52,0,0,0-3.5,3.5,3.5,3.5,0,0,0,3.5,3.5,3.52,3.52,0,0,0-3.5,3.5,3.5,3.5,0,0,0,3.5,3.5,3.52,3.52,0,0,0-3.5,3.5,3.5,3.5,0,0,0,3.5,3.5,3.52,3.52,0,0,0-3.5,3.5,3.5,3.5,0,0,0,3.5,3.5,3.52,3.52,0,0,0-3.5,3.5,3.5,3.5,0,0,0,3.5,3.5,3.52,3.52,0,0,0-3.5,3.5,3.5,3.5,0,0,0,3.5,3.5,3.52,3.52,0,0,0-3.5,3.5,3.5,3.5,0,0,0,3.5,3.5,3.52,3.52,0,0,0-3.5,3.5,3.5,3.5,0,0,0,3.5,3.5,3.52,3.52,0,0,0-3.5,3.5,3.5,3.5,0,0,0,3.5,3.5,3.52,3.52,0,0,0-3.5,3.5,3.5,3.5,0,0,0,3.5,3.5H1032V309.48a69.91,69.91,0,0,0,7-1c1,0,4,1,4,2s-4,5-5,7,4,7,6,4-1-3-2-4,2-3,3-5,4-1,4,0-4,5-4,7,1,6,4,6,2-4,2-5-3,0-3-1,3.5-5.5,3.5-5.5c7,0,8-2,8-2s-4-2-5-5,2-6-1-9-7-1-7-1c-2-4-8-4-9-4H1032V246.94a16.44,16.44,0,0,0,28.26-2.13,3.5,3.5,0,0,0,3.24,2.19,3.52,3.52,0,0,0-3.5,3.5A3.5,3.5,0,0,0,1063.5,254ZM1048,299.5s2,0,2,1-2,6-1,7c0,0-2-1-2-2S1049,300.5,1048,299.5Zm77-6.5h-3.5c-1,0-7,0-9,4,0,0-4-2-7,1s0,6-1,9-5,5-5,5,1,2,8,2c0,0,3.5,4.5,3.5,5.5s-3,0-3,1-1,5,2,5,4-4,4-6-4-6-4-7,3-2,4,0,4,4,3,5-4,1-2,4,7-2,6-4-5-6-5-7,3-2,4-2c.73,0,2.53.53,5,.82V366h-31.5a3.52,3.52,0,0,0,3.5-3.5,3.5,3.5,0,0,0-3.5-3.5,3.52,3.52,0,0,0,3.5-3.5,3.5,3.5,0,0,0-3.5-3.5,3.52,3.52,0,0,0,3.5-3.5,3.5,3.5,0,0,0-3.5-3.5,3.52,3.52,0,0,0,3.5-3.5,3.5,3.5,0,0,0-3.5-3.5,3.52,3.52,0,0,0,3.5-3.5,3.5,3.5,0,0,0-3.5-3.5,3.52,3.52,0,0,0,3.5-3.5,3.5,3.5,0,0,0-3.5-3.5,3.52,3.52,0,0,0,3.5-3.5,3.5,3.5,0,0,0-3.5-3.5,3.52,3.52,0,0,0,3.5-3.5,3.5,3.5,0,0,0-3.5-3.5,3.52,3.52,0,0,0,3.5-3.5,3.5,3.5,0,0,0-3.5-3.5,3.52,3.52,0,0,0,3.5-3.5,3.5,3.5,0,0,0-3.5-3.5,3.52,3.52,0,0,0,3.5-3.5,3.5,3.5,0,0,0-3.5-3.5,3.52,3.52,0,0,0,3.5-3.5,3.5,3.5,0,0,0-3.5-3.5,3.52,3.52,0,0,0,3.5-3.5,3.5,3.5,0,0,0-3.5-3.5,3.52,3.52,0,0,0,3.5-3.5,3.5,3.5,0,0,0-3.5-3.5,3.52,3.52,0,0,0,3.5-3.5,3.5,3.5,0,0,0-3.5-3.5,3.52,3.52,0,0,0,3.5-3.5,3.5,3.5,0,0,0-3.5-3.5,3.52,3.52,0,0,0,3.5-3.5,3.5,3.5,0,0,0-3.5-3.5,3.46,3.46,0,0,0,2.47-1,1.55,1.55,0,0,0,.24-.27,16.45,16.45,0,0,0,28.79-.38Zm-16,7.5c0-1,2-1,2-1-1,1,1,5,1,6s-2,2-2,2C1111,306.5,1109,301.5,1109,300.5Zm64,18.5h-4.5c-1,0-7,0-9,4,0,0-4-2-7,1s0,6-1,9-5,5-5,5,1,2,8,2c0,0,3.5,4.5,3.5,5.5s-3,0-3,1-1,5,2,5,4-4,4-6-4-6-4-7,3-2,4,0,4,4,3,5-4,1-2,4,7-2,6-4-5-6-5-7,3-2,4-2c.83,0,3,.68,6,.92V366h-44V309.46c3.79-.27,8.08-2,9-2s3,1,3,4,0,5-1,5a2.15,2.15,0,0,0-2,2c0,1,0,3,3,2s2-7,2-8-1-4,0-5,3,0,3,1v6c0,1-2,0-2,1s-2,5,1,5,4-3,4-5,1-9,0-11-5-2-6-3c-.71-.71-2-13,1.5-13.5,0,0,3,7,5,7s3.5-1.5,2.5-3.5-.5-6.5-.5-6.5l3-1s-4.58-4.49-10.5-3.5-12,8-12.5,12.5H1129V245.32a16.47,16.47,0,0,0,30.5-3.81,16.65,16.65,0,0,0,13.5,12.3Zm-17,7.5c0-1,2-1,2-1-1,1,1,5,1,6s-2,2-2,2C1158,332.5,1156,327.5,1156,326.5Z" style="fill:#fff"/></g><g id="flyingCarousel"><path d="M315.5,380H312V365H195V254.17a13.92,13.92,0,0,0,9.78,4c.49,0,1,0,1.45-.07l12.12,76.33-6,1a2.77,2.77,0,1,0,.87,5.48l1.65-.26,1,6.58-2.74.44a1.67,1.67,0,0,0,.52,3.29l17.56-2.79a1.67,1.67,0,1,0-.53-3.29l-2.74.44-1-6.59,1.64-.26a2.77,2.77,0,1,0-.87-5.48l-6,.95-12.16-76.56a14.12,14.12,0,0,0,8.8-9.48,14.08,14.08,0,0,0,13.12,10.3l13.34,53.43-5.93,1.48a2.77,2.77,0,0,0-2,3.37,2.78,2.78,0,0,0,3.37,2l1.61-.4,1.62,6.46-2.69.68a1.66,1.66,0,1,0,.8,3.23l17.25-4.31a1.67,1.67,0,0,0-.81-3.23l-2.69.67-1.62-6.46,1.62-.41a2.8,2.8,0,0,0,1.71-1.26,2.84,2.84,0,0,0,.31-2.11,2.78,2.78,0,0,0-3.37-2L248,310.81l-13.22-52.94a14.11,14.11,0,0,0,10.53-10,14.09,14.09,0,0,0,13,10.3l22.87,67.43-5.79,2a2.75,2.75,0,0,0-1.6,1.4,2.82,2.82,0,0,0-.14,2.12,2.78,2.78,0,0,0,3.52,1.74l1.58-.54,2.14,6.32-2.63.89a1.66,1.66,0,0,0,1.07,3.15L296.19,337a1.66,1.66,0,1,0-1.07-3.15l-2.63.89-2.15-6.31,1.58-.54a2.77,2.77,0,0,0,1.74-3.52,2.78,2.78,0,0,0-3.52-1.74l-5.79,2-22.61-66.67a14.12,14.12,0,0,0,10.83-11.29,1.4,1.4,0,0,0,.43-1V229.91a3.4,3.4,0,0,0-3.41-3.41h-9.26L181,150.77a5.49,5.49,0,0,0-3-9.74V131.5c3.72-1.79,7.83-3.26,14-1.5,7,2,7,8,17,8s11-5,11-5c-8,1-9-2-9-2,8-3,7-8,7-8a18.39,18.39,0,0,1-15,0c-5-2-12-8-17-8a16.33,16.33,0,0,0-8,2.35v-4.46a2.7,2.7,0,1,0-2-.24v28.56a5.49,5.49,0,0,0-4,5.29,5.44,5.44,0,0,0,1.53,3.8l-80,76.2H83.91a3.4,3.4,0,0,0-3.41,3.41v15.25a1.84,1.84,0,0,0,.76,1.49,14.09,14.09,0,0,0,12.38,11.28L72.09,324.77l-5.81-1.87a2.77,2.77,0,0,0-2.12.16,2.84,2.84,0,0,0-1.38,1.63,2.77,2.77,0,0,0,1.79,3.49l1.59.51-2,6.35-2.64-.86a1.67,1.67,0,1,0-1,3.18l16.91,5.45a1.67,1.67,0,1,0,1-3.17l-2.65-.85,2.05-6.35,1.58.51a2.76,2.76,0,0,0,2.12-.16,2.84,2.84,0,0,0,1.38-1.63,2.77,2.77,0,0,0-1.79-3.49l-5.82-1.88,21.92-68a14.14,14.14,0,0,0,11.32-10.14,14.16,14.16,0,0,0,10,9.86l-11,53.71-6-1.22a2.78,2.78,0,0,0-1.11,5.44l1.63.33-1.34,6.53L98,321.78a1.67,1.67,0,0,0-.67,3.27l17.42,3.57a1.67,1.67,0,0,0,.67-3.27l-2.73-.56,1.34-6.53,1.63.34a2.79,2.79,0,0,0,2.09-.4,2.78,2.78,0,0,0-1-5l-6-1.23,11-53.94h.2a14.09,14.09,0,0,0,13.5-10.31,14.14,14.14,0,0,0,9.14,9.6L134,333.2l-6-.86a2.83,2.83,0,0,0-2.06.53,2.78,2.78,0,0,0,1.29,5l1.65.24-.93,6.6-2.75-.39a1.67,1.67,0,1,0-.47,3.3l17.6,2.48a1.67,1.67,0,0,0,.47-3.3l-2.75-.39.93-6.6,1.65.23a2.78,2.78,0,0,0,.77-5.5l-6.05-.85L147.91,258A9.83,9.83,0,0,0,149,258a14,14,0,0,0,11-5.39V365H43l-.5.5V380h-3a5.5,5.5,0,0,0,0,11h276a5.5,5.5,0,0,0,0-11Zm-90.79-40.93,1,6.58-7.68,1.22L217,340.29Zm26.76-23.41,1.62,6.47L245.55,324l-1.62-6.46Zm36.77,13.43,2.14,6.31L283,337.9l-2.14-6.31ZM75.67,331.76l-2,6.34-7.4-2.38,2-6.35Zm36.15-13.94-1.34,6.53-7.62-1.56,1.34-6.53Zm26.86,21.65-.93,6.6-7.7-1.08.93-6.6ZM53.5,380h-8V368.5h8Zm11,0h-7V368.5h7Zm12,0h-9V368.5h9Zm11,0h-8V368.5h8Zm11,0h-8V368.5h8Zm11,0h-8V368.5h8Zm11,0h-8V368.5h8Zm11-6h-3.89a3.5,3.5,0,0,0-2.45,6H123.5V368.5h8Zm11,0h-8v-5.5h8Zm11,0h-8v-5.5h8Zm6.5,0h-3.5v-5.5H160Zm37.5,0H195v-5.5h2.5Zm11,0h-7v-5.5h7Zm11,0h-7v-5.5h7Zm12,6h-1.56l0,0a3.46,3.46,0,0,0,1-2.47,3.5,3.5,0,0,0-3.5-3.5h-4v-5.5h8Zm11,0h-8V368.5h8Zm11,0h-8V368.5h8Zm11,0h-8V368.5h8Zm11,0h-8V368.5h8Zm11,0h-8V368.5h8Zm11,0h-8V368.5h8Zm12,0h-9V368.5h9Z" style="fill:#fff"/></g><g id="FerrisWheel"><path d="M546.4,186.41a21.51,21.51,0,1,0-23.55.15L455.51,348h9.08l8.91-21.5h122l8.91,21.5h8.38ZM476,319l54-129.49a21.32,21.32,0,0,0,8.95,0L593,319Z" style="fill:#fff"/><path d="M659.5,168.5A124.47,124.47,0,0,1,636.37,241a125,125,0,0,1-58.72,44.89,125,125,0,0,1-111.87-12.92A126.25,126.25,0,0,1,438,248a123.27,123.27,0,0,1-10.78-15.31c-1.62-2.7-3.15-5.47-4.56-8.29s-2.78-5.81-3.84-8.41a127.14,127.14,0,0,1-5.92-18.46,120.53,120.53,0,0,1-3-19.13A125.34,125.34,0,0,1,413,138.84a123,123,0,0,1,14.5-35.07,124.87,124.87,0,0,1,92.33-59.44A126.73,126.73,0,0,1,559.41,46a124.78,124.78,0,0,1,65.47,36.17,124.76,124.76,0,0,1,33.2,67.29,128.92,128.92,0,0,1,1.42,19.06c0,3.86,6,3.87,6,0a130.29,130.29,0,0,0-24-75.64,133.51,133.51,0,0,0-27.54-28.52A130.87,130.87,0,0,0,433.53,85.06a132.6,132.6,0,0,0-20.39,34.08,130.18,130.18,0,0,0-9.25,39.32,131.07,131.07,0,0,0,157,138.38A129.8,129.8,0,0,0,598.17,283a131.5,131.5,0,0,0,53.6-56.08,129.45,129.45,0,0,0,12.14-38.12,135.41,135.41,0,0,0,1.59-20.31C665.51,164.64,659.51,164.63,659.5,168.5Z" style="fill:#fff"/><g id="lines"><line x1="490" y1="60" x2="579" y2="278" style="fill:none;stroke:#fff;stroke-miterlimit:10;stroke-width:2px"/><line x1="535" y1="50" x2="534" y2="289" style="fill:none;stroke:#fff;stroke-miterlimit:10;stroke-width:2px"/><line x1="580" y1="60" x2="487" y2="283" style="fill:none;stroke:#fff;stroke-miterlimit:10;stroke-width:2px"/><line x1="618" y1="87" x2="446" y2="256" style="fill:none;stroke:#fff;stroke-miterlimit:10;stroke-width:2px"/><line x1="645" y1="122" x2="421" y2="215.5" style="fill:none;stroke:#fff;stroke-miterlimit:10;stroke-width:2px"/><line x1="658" y1="168.5" x2="408" y2="168" style="fill:none;stroke:#fff;stroke-miterlimit:10;stroke-width:2px"/><line x1="643" y1="214" x2="416" y2="120" style="fill:none;stroke:#fff;stroke-miterlimit:10;stroke-width:2px"/><line x1="618" y1="251" x2="451" y2="87" style="fill:none;stroke:#fff;stroke-miterlimit:10;stroke-width:2px"/><polygon points="453 87 518.26 129.22 535 62 551.13 129.22 610.38 94.49 575 151.22 639 169 573.57 185.25 609.88 243.03 550.9 209.18 535 274 517.78 209.2 459.17 243.06 494 185.03 427 168.5 494 152.3 453 87" style="fill:none;stroke:#fff;stroke-miterlimit:10;stroke-width:2px"/><polygon points="436 128.28 502.89 137.96 494 69.8 534.69 125 575 71.99 565 138 632.55 128.17 577 168 633 209.86 565.1 199.04 573 262 535 211 497 262 504.46 198.56 436.52 209.02 492 168 436 128.28" style="fill:none;stroke:#fff;stroke-miterlimit:10;stroke-width:2px"/><circle cx="534.5" cy="168.5" r="42.5" style="fill:none;stroke:#fff;stroke-miterlimit:10;stroke-width:2px"/><circle cx="534.5" cy="168.5" r="64" style="fill:none;stroke:#fff;stroke-miterlimit:10;stroke-width:2px"/><circle cx="534.5" cy="168.5" r="84" style="fill:none;stroke:#fff;stroke-miterlimit:10;stroke-width:2px"/><circle cx="534.5" cy="168.5" r="106" style="fill:none;stroke:#fff;stroke-miterlimit:10;stroke-width:2px"/></g><g id="windows"><rect x="405.5" y="210.5" width="22" height="13" style="fill:#92d2f5"/><rect x="395" y="163" width="22" height="13" style="fill:#92d2f5"/><rect x="405" y="114" width="22" height="13" style="fill:#92d2f5"/><rect x="433" y="72" width="22" height="13" style="fill:#92d2f5"/><rect x="475" y="44" width="22" height="13" style="fill:#92d2f5"/><rect x="523" y="35" width="22" height="13" style="fill:#92d2f5"/><rect x="572" y="44" width="22" height="13" style="fill:#92d2f5"/><rect x="613" y="72" width="22" height="13" style="fill:#92d2f5"/><rect x="643" y="113" width="22" height="13" style="fill:#92d2f5"/><rect x="651" y="162" width="22" height="13" style="fill:#92d2f5"/><rect x="641" y="211" width="22" height="13" style="fill:#92d2f5"/><rect x="613" y="253" width="22" height="13" style="fill:#92d2f5"/><rect x="573" y="280" width="22" height="13" style="fill:#92d2f5"/><rect x="523" y="291" width="22" height="13" style="fill:#92d2f5"/><rect x="474" y="280" width="22" height="13" style="fill:#92d2f5"/><rect x="433" y="253" width="22" height="13" style="fill:#92d2f5"/></g><g id="cabins"><path d="M490.61,39H480.39A7.39,7.39,0,0,0,473,46.39v8.22A7.39,7.39,0,0,0,480.39,62h10.22A7.39,7.39,0,0,0,498,54.61V46.39A7.39,7.39,0,0,0,490.61,39ZM479,56h-4V44h4Zm11,0h-9V54h9Zm0-3h-9V44h9Zm6,3h-4V44h4Z" style="fill:#fff"/><path d="M449.61,67H439.39A7.39,7.39,0,0,0,432,74.39v8.22A7.39,7.39,0,0,0,439.39,90h10.22A7.39,7.39,0,0,0,457,82.61V74.39A7.39,7.39,0,0,0,449.61,67ZM438,84h-4V72h4Zm11,0h-9V82h9Zm0-3h-9V72h9Zm6,3h-4V72h4Z" style="fill:#fff"/><path d="M421.61,109H411.39a7.39,7.39,0,0,0-7.39,7.39v8.22a7.39,7.39,0,0,0,7.39,7.39h10.22a7.39,7.39,0,0,0,7.39-7.39v-8.22A7.39,7.39,0,0,0,421.61,109ZM410,126h-4V114h4Zm11,0h-9v-2h9Zm0-3h-9v-9h9Zm6,3h-4V114h4Z" style="fill:#fff"/><path d="M411.61,158H401.39a7.39,7.39,0,0,0-7.39,7.39v8.22a7.39,7.39,0,0,0,7.39,7.39h10.22a7.39,7.39,0,0,0,7.39-7.39v-8.22A7.39,7.39,0,0,0,411.61,158ZM400,175h-4V163h4Zm11,0h-9v-2h9Zm0-3h-9v-9h9Zm6,3h-4V163h4Z" style="fill:#fff"/><path d="M421.61,206H411.39a7.39,7.39,0,0,0-7.39,7.39v8.22a7.39,7.39,0,0,0,7.39,7.39h10.22a7.39,7.39,0,0,0,7.39-7.39v-8.22A7.39,7.39,0,0,0,421.61,206ZM410,223h-4V211h4Zm11,0h-9v-2h9Zm0-3h-9v-9h9Zm6,3h-4V211h4Z" style="fill:#fff"/><path d="M449.61,248H439.39a7.39,7.39,0,0,0-7.39,7.39v8.22a7.39,7.39,0,0,0,7.39,7.39h10.22a7.39,7.39,0,0,0,7.39-7.39v-8.22A7.39,7.39,0,0,0,449.61,248ZM438,265h-4V253h4Zm11,0h-9v-2h9Zm0-3h-9v-9h9Zm6,3h-4V253h4Z" style="fill:#fff"/><path d="M490.61,275H480.39a7.39,7.39,0,0,0-7.39,7.39v8.22a7.39,7.39,0,0,0,7.39,7.39h10.22a7.39,7.39,0,0,0,7.39-7.39v-8.22A7.39,7.39,0,0,0,490.61,275ZM479,292h-4V280h4Zm11,0h-9v-2h9Zm0-3h-9v-9h9Zm6,3h-4V280h4Z" style="fill:#fff"/><path d="M539.61,286H529.39a7.39,7.39,0,0,0-7.39,7.39v8.22a7.39,7.39,0,0,0,7.39,7.39h10.22a7.39,7.39,0,0,0,7.39-7.39v-8.22A7.39,7.39,0,0,0,539.61,286ZM528,303h-4V291h4Zm11,0h-9v-2h9Zm0-3h-9v-9h9Zm6,3h-4V291h4Z" style="fill:#fff"/><path d="M588.61,275H578.39a7.39,7.39,0,0,0-7.39,7.39v8.22a7.39,7.39,0,0,0,7.39,7.39h10.22a7.39,7.39,0,0,0,7.39-7.39v-8.22A7.39,7.39,0,0,0,588.61,275ZM577,292h-4V280h4Zm11,0h-9v-2h9Zm0-3h-9v-9h9Zm6,3h-4V280h4Z" style="fill:#fff"/><path d="M629.61,248H619.39a7.39,7.39,0,0,0-7.39,7.39v8.22a7.39,7.39,0,0,0,7.39,7.39h10.22a7.39,7.39,0,0,0,7.39-7.39v-8.22A7.39,7.39,0,0,0,629.61,248ZM618,265h-4V253h4Zm11,0h-9v-2h9Zm0-3h-9v-9h9Zm6,3h-4V253h4Z" style="fill:#fff"/><path d="M656.61,206H646.39a7.39,7.39,0,0,0-7.39,7.39v8.22a7.39,7.39,0,0,0,7.39,7.39h10.22a7.39,7.39,0,0,0,7.39-7.39v-8.22A7.39,7.39,0,0,0,656.61,206ZM645,223h-4V211h4Zm11,0h-9v-2h9Zm0-3h-9v-9h9Zm6,3h-4V211h4Z" style="fill:#fff"/><path d="M667.61,157H657.39a7.39,7.39,0,0,0-7.39,7.39v8.22a7.39,7.39,0,0,0,7.39,7.39h10.22a7.39,7.39,0,0,0,7.39-7.39v-8.22A7.39,7.39,0,0,0,667.61,157ZM656,174h-4V162h4Zm11,0h-9v-2h9Zm0-3h-9v-9h9Zm6,3h-4V162h4Z" style="fill:#fff"/><path d="M658.61,108H648.39a7.39,7.39,0,0,0-7.39,7.39v8.22a7.39,7.39,0,0,0,7.39,7.39h10.22a7.39,7.39,0,0,0,7.39-7.39v-8.22A7.39,7.39,0,0,0,658.61,108ZM647,125h-4V113h4Zm11,0h-9v-2h9Zm0-3h-9v-9h9Zm6,3h-4V113h4Z" style="fill:#fff"/><path d="M629.61,67H619.39A7.39,7.39,0,0,0,612,74.39v8.22A7.39,7.39,0,0,0,619.39,90h10.22A7.39,7.39,0,0,0,637,82.61V74.39A7.39,7.39,0,0,0,629.61,67ZM618,84h-4V72h4Zm11,0h-9V82h9Zm0-3h-9V72h9Zm6,3h-4V72h4Z" style="fill:#fff"/><path d="M588.61,39H578.39A7.39,7.39,0,0,0,571,46.39v8.22A7.39,7.39,0,0,0,578.39,62h10.22A7.39,7.39,0,0,0,596,54.61V46.39A7.39,7.39,0,0,0,588.61,39ZM577,56h-4V44h4Zm11,0h-9V54h9Zm0-3h-9V44h9Zm6,3h-4V44h4Z" style="fill:#fff"/><path d="M539.61,30H529.39A7.39,7.39,0,0,0,522,37.39v8.22A7.39,7.39,0,0,0,529.39,53h10.22A7.39,7.39,0,0,0,547,45.61V37.39A7.39,7.39,0,0,0,539.61,30ZM528,47h-4V35h4Zm11,0h-9V45h9Zm0-3h-9V35h9Zm6,3h-4V35h4Z" style="fill:#fff"/></g><path d="M674,376H649v-6.39a4.6,4.6,0,0,0-4.61-4.61H641V348H428v17h-4.39a4.6,4.6,0,0,0-4.61,4.61V376H394a8,8,0,0,0,0,16H674a8,8,0,0,0,0-16ZM441,365h-9V351h9Zm7.42,0H446V351h8.26ZM467,365h-9.46l5.8-14H467Zm13,0h-8V351h8Zm13,0h-8V351h8Zm13,0h-8V351h8Zm13,0h-8V351h8Zm13,0h-8V351h8Zm14,0h-9V351h9Zm13,0h-9V351h9Zm13,0h-9V351h9Zm12,0h-8V351h8Zm14,0H588V351h10Zm4,0V351h3.66l5.8,14Zm23,0h-5.23L614,351h11Zm3-14h10v14H628Z" style="fill:#fff"/></g></svg>