<svg xmlns="http://www.w3.org/2000/svg" viewBox="0 0 562.02 106.13"><title>Rityta 1</title><g id="Letters"><g id="D"><path id="D-2" data-name="D" d="M461.72,15.43A11.87,11.87,0,0,0,451,9.2H434.2a3.13,3.13,0,0,0-3,3.21v47.3a3,3,0,0,0,3,3h20.58a8.78,8.78,0,0,0,6.87-3.27,9.78,9.78,0,0,0,2.29-6.13V24A17,17,0,0,0,461.72,15.43Zm-7,31.55a7.06,7.06,0,0,1-1.58,4.58,7.7,7.7,0,0,1-6,2.69h-6.88V18.69h8.26A5.7,5.7,0,0,1,453.11,21a7.89,7.89,0,0,1,1.57,4.83Z" style="fill:#92d2f5;stroke:#77c2ec;stroke-miterlimit:10;stroke-width:2px"/><circle cx="435.8" cy="21.44" r="1.98" style="fill:#fff"/><circle cx="435.8" cy="29.44" r="1.98" style="fill:#fff"/><circle cx="435.8" cy="37.44" r="1.98" style="fill:#fff"/><circle cx="435.8" cy="44.44" r="1.98" style="fill:#fff"/><circle cx="435.8" cy="51.44" r="1.98" style="fill:#fff"/><circle cx="435.8" cy="58.44" r="1.98" style="fill:#fff"/><circle cx="435.8" cy="13.44" r="1.98" style="fill:#fff"/><circle cx="459.21" cy="23.44" r="1.98" style="fill:#fff"/><circle cx="459.21" cy="31.44" r="1.98" style="fill:#fff"/><circle cx="459.21" cy="38.44" r="1.98" style="fill:#fff"/><circle cx="459.21" cy="46.44" r="1.98" style="fill:#fff"/><circle cx="458.21" cy="54.44" r="1.98" style="fill:#fff"/><circle cx="456.21" cy="16.44" r="1.98" style="fill:#fff"/><circle cx="452.21" cy="58.44" r="1.98" style="fill:#fff"/><circle cx="444.21" cy="58.44" r="1.98" style="fill:#fff"/><circle cx="449.21" cy="13.44" r="1.98" style="fill:#fff"/><circle cx="442.21" cy="13.44" r="1.98" style="fill:#fff"/></g><g id="N"><path id="N-2" data-name="N" d="M401.75,34.07l13.73,26.71a3.47,3.47,0,0,0,3.1,1.9h5.75a1.92,1.92,0,0,0,1.92-1.92V13.41a4.16,4.16,0,0,0-.7-2.4,4.37,4.37,0,0,0-3.87-1.76h-.13a4.93,4.93,0,0,0-4.77,5V41.28l-15-29.72s-1.05-2.31-4.46-2.31-4.74,1.92-4.74,3.78v47.9a1.76,1.76,0,0,0,1.76,1.75H400a1.84,1.84,0,0,0,1.84-1.84Z" style="fill:#92d2f5;stroke:#77c2ec;stroke-miterlimit:10;stroke-width:2px"/><circle cx="397.27" cy="22.44" r="1.98" style="fill:#fff"/><circle cx="397.27" cy="29.44" r="1.98" style="fill:#fff"/><circle cx="397.27" cy="36.44" r="1.98" style="fill:#fff"/><circle cx="397.27" cy="43.44" r="1.98" style="fill:#fff"/><circle cx="397.27" cy="50.44" r="1.98" style="fill:#fff"/><circle cx="397.27" cy="57.44" r="1.98" style="fill:#fff"/><circle cx="421.54" cy="22.44" r="1.98" style="fill:#fff"/><circle cx="421.54" cy="29.44" r="1.98" style="fill:#fff"/><circle cx="421.54" cy="36.44" r="1.98" style="fill:#fff"/><circle cx="421.54" cy="43.44" r="1.98" style="fill:#fff"/><circle cx="421.54" cy="50.44" r="1.98" style="fill:#fff"/><circle cx="421.54" cy="57.44" r="1.98" style="fill:#fff"/><circle cx="397.27" cy="15.44" r="1.98" style="fill:#fff"/><circle cx="421.54" cy="15.44" r="1.98" style="fill:#fff"/><circle cx="414.93" cy="47.44" r="1.98" style="fill:#fff"/><circle cx="410.93" cy="40.44" r="1.98" style="fill:#fff"/><circle cx="407.93" cy="33.44" r="1.98" style="fill:#fff"/><circle cx="403.93" cy="26.44" r="1.98" style="fill:#fff"/></g><g id="A"><path id="A-2" data-name="A" d="M384.79,17A15.58,15.58,0,0,0,370.68,9.2c-8.45,0-12.48,4.86-14.39,9.11a20.17,20.17,0,0,0-1.68,8.25V60.62a2.05,2.05,0,0,0,2.05,2.06h5a1.88,1.88,0,0,0,1.88-1.88V42.66h14.36V60.55A2.12,2.12,0,0,0,380,62.68h5.35a2.3,2.3,0,0,0,2.3-2.3V27.71A20.68,20.68,0,0,0,384.79,17Zm-7,16.21h-14.2s-1.32-15.31,7.1-15.31S377.78,33.25,377.78,33.25Z" style="fill:#92d2f5;stroke:#77c2ec;stroke-miterlimit:10;stroke-width:2px"/><circle cx="358.73" cy="30.44" r="1.98" style="fill:#fff"/><circle cx="358.73" cy="37.44" r="1.98" style="fill:#fff"/><circle cx="358.73" cy="44.44" r="1.98" style="fill:#fff"/><circle cx="358.73" cy="51.44" r="1.98" style="fill:#fff"/><circle cx="358.73" cy="58.44" r="1.98" style="fill:#fff"/><circle cx="382.68" cy="30.44" r="1.98" style="fill:#fff"/><circle cx="382.68" cy="37.44" r="1.98" style="fill:#fff"/><circle cx="382.68" cy="44.44" r="1.98" style="fill:#fff"/><circle cx="382.68" cy="51.44" r="1.98" style="fill:#fff"/><circle cx="382.68" cy="58.44" r="1.98" style="fill:#fff"/><circle cx="367.73" cy="37.44" r="1.98" style="fill:#fff"/><circle cx="374.73" cy="37.44" r="1.98" style="fill:#fff"/><circle cx="359.73" cy="23.44" r="1.98" style="fill:#fff"/><circle cx="362.73" cy="16.44" r="1.98" style="fill:#fff"/><circle cx="370.73" cy="13.44" r="1.98" style="fill:#fff"/><circle cx="378.73" cy="16.44" r="1.98" style="fill:#fff"/><circle cx="381.73" cy="23.44" r="1.98" style="fill:#fff"/></g><g id="L"><path id="L-2" data-name="L" d="M342.19,54.48l-16.62.05,0-41.12a4.2,4.2,0,0,0-.7-2.42A4.34,4.34,0,0,0,321,9.2h-.13a5,5,0,0,0-4.83,5V60.45a2.23,2.23,0,0,0,2.23,2.23h28.2a2.6,2.6,0,0,0,2.2-1.28,4.44,4.44,0,0,0-1.58-6.16A11.12,11.12,0,0,0,342.19,54.48Z" style="fill:#92d2f5;stroke:#77c2ec;stroke-miterlimit:10;stroke-width:2px"/><circle cx="321.08" cy="23.44" r="1.98" style="fill:#fff"/><circle cx="321.08" cy="30.44" r="1.98" style="fill:#fff"/><circle cx="321.08" cy="37.44" r="1.98" style="fill:#fff"/><circle cx="321.08" cy="44.44" r="1.98" style="fill:#fff"/><circle cx="321.08" cy="51.44" r="1.98" style="fill:#fff"/><circle cx="321.08" cy="58.44" r="1.98" style="fill:#fff"/><circle cx="321.08" cy="16.44" r="1.98" style="fill:#fff"/><circle cx="328.08" cy="58.44" r="1.98" style="fill:#fff"/><circle cx="335.08" cy="58.44" r="1.98" style="fill:#fff"/><circle cx="342.08" cy="58.44" r="1.98" style="fill:#fff"/></g><g id="W"><path id="W-2" data-name="W" d="M260.23,61.31l6.91-26.58L273.91,61a2.27,2.27,0,0,0,2.19,1.7h5.66A2.3,2.3,0,0,0,284,61L296,14.59s.93-4.9-3.86-5.34-5.67,4.4-5.67,4.4l-6.82,27.52-7.54-28.4s-.5-3.52-4.9-3.52a4.71,4.71,0,0,0-4.9,4l-6.72,27.52-7.7-28.24s-.55-3.8-5.18-3.3c-2.64.28-3.74,1.53-4.16,3a5.43,5.43,0,0,0,0,2.83l11.22,46.08a2,2,0,0,0,1.93,1.52h6.72A1.83,1.83,0,0,0,260.23,61.31Z" style="fill:#92d2f5;stroke:#77c2ec;stroke-miterlimit:10;stroke-width:2px"/><circle cx="242.47" cy="14.15" r="1.98" style="fill:#fff"/><circle cx="244.47" cy="21.15" r="1.98" style="fill:#fff"/><circle cx="246.47" cy="28.15" r="1.98" style="fill:#fff"/><circle cx="248.47" cy="35.15" r="1.98" style="fill:#fff"/><circle cx="250.47" cy="42.15" r="1.98" style="fill:#fff"/><circle cx="252.47" cy="49.15" r="1.98" style="fill:#fff"/><circle cx="254.47" cy="56.15" r="1.98" style="fill:#fff"/><circle cx="257.47" cy="49.15" r="1.98" style="fill:#fff"/><circle cx="259.47" cy="42.15" r="1.98" style="fill:#fff"/><circle cx="261.47" cy="35.15" r="1.98" style="fill:#fff"/><circle cx="263.47" cy="28.15" r="1.98" style="fill:#fff"/><circle cx="265.47" cy="21.15" r="1.98" style="fill:#fff"/><circle cx="267.47" cy="14.15" r="1.98" style="fill:#fff"/><circle cx="278.69" cy="56.18" r="1.98" style="fill:#fff"/><circle cx="281.69" cy="49.18" r="1.98" style="fill:#fff"/><circle cx="283.69" cy="42.18" r="1.98" style="fill:#fff"/><circle cx="285.69" cy="35.18" r="1.98" style="fill:#fff"/><circle cx="287.69" cy="28.18" r="1.98" style="fill:#fff"/><circle cx="289.69" cy="21.18" r="1.98" style="fill:#fff"/><circle cx="291.69" cy="14.18" r="1.98" style="fill:#fff"/><circle cx="270.58" cy="21.15" r="1.98" style="fill:#fff"/><circle cx="271.58" cy="28.15" r="1.98" style="fill:#fff"/><circle cx="273.58" cy="35.15" r="1.98" style="fill:#fff"/><circle cx="275.58" cy="42.15" r="1.98" style="fill:#fff"/><circle cx="276.58" cy="49.15" r="1.98" style="fill:#fff"/></g><g id="O"><path id="O-2" data-name="O" d="M230.54,15.14c-2.18-3-6.15-5.89-13.27-5.89a21.6,21.6,0,0,0-5.44.64,15,15,0,0,0-11.08,14.57v28a11.86,11.86,0,0,0,1.59,6.08,7.74,7.74,0,0,0,6.83,4.14h15.27a8.65,8.65,0,0,0,7.87-4.78,8,8,0,0,0,.81-3.5V23.33A13.75,13.75,0,0,0,230.54,15.14ZM224,47.69a7.29,7.29,0,0,1-3.72,6.51,6.43,6.43,0,0,1-3,.74c-4.62,0-7.82-3.36-7.82-6.16V24.55A7.29,7.29,0,0,1,217,18.39c6.66,0,7,5.33,7,5.33Z" style="fill:#92d2f5;stroke:#77c2ec;stroke-miterlimit:10;stroke-width:2px"/><circle cx="206.49" cy="19.66" r="1.98" style="fill:#fff"/><circle cx="205.49" cy="26.66" r="1.98" style="fill:#fff"/><circle cx="205.49" cy="33.66" r="1.98" style="fill:#fff"/><circle cx="205.49" cy="40.66" r="1.98" style="fill:#fff"/><circle cx="205.49" cy="47.66" r="1.98" style="fill:#fff"/><circle cx="206.49" cy="54.66" r="1.98" style="fill:#fff"/><circle cx="227.19" cy="19.66" r="1.98" style="fill:#fff"/><circle cx="228.19" cy="26.66" r="1.98" style="fill:#fff"/><circle cx="228.19" cy="33.66" r="1.98" style="fill:#fff"/><circle cx="228.19" cy="40.66" r="1.98" style="fill:#fff"/><circle cx="228.19" cy="47.66" r="1.98" style="fill:#fff"/><circle cx="227.19" cy="54.66" r="1.98" style="fill:#fff"/><circle cx="213.49" cy="58.66" r="1.98" style="fill:#fff"/><circle cx="221.49" cy="58.66" r="1.98" style="fill:#fff"/><circle cx="213.49" cy="14.15" r="1.98" style="fill:#fff"/><circle cx="221.49" cy="14.15" r="1.98" style="fill:#fff"/></g><g id="B"><path id="B-2" data-name="B" d="M190.46,37.71s4.9-1.65,4.9-12.94-7.6-15.52-11.29-15.52H165.91a4,4,0,0,0-2.86,1.21,6.32,6.32,0,0,0-.94,3.3V59.63a3,3,0,0,0,3,3h20.26a9.34,9.34,0,0,0,8.59-5.5A17.78,17.78,0,0,0,195.36,50C195.36,40,190.46,37.71,190.46,37.71Zm-4.37,12.62c-.31,4.08-3.9,5.13-8,5.13h-6.91V42.61h7.94A6.93,6.93,0,0,1,185,45.68a7.29,7.29,0,0,1,1.09,4C186.11,49.88,186.1,50.11,186.09,50.33Zm0-24a7.71,7.71,0,0,1-7.79,6.95h-7.1V18.06h7.12a7.71,7.71,0,0,1,7.78,7c0,.21,0,.44,0,.67S186.1,26.13,186.08,26.35Z" style="fill:#92d2f5;stroke:#77c2ec;stroke-miterlimit:10;stroke-width:2px"/><circle cx="167.12" cy="20.59" r="1.98" style="fill:#fff"/><circle cx="167.12" cy="27.59" r="1.98" style="fill:#fff"/><circle cx="167.12" cy="42.59" r="1.98" style="fill:#fff"/><circle cx="167.12" cy="50.59" r="1.98" style="fill:#fff"/><circle cx="167.12" cy="57.59" r="1.98" style="fill:#fff"/><circle cx="167.12" cy="13.59" r="1.98" style="fill:#fff"/><circle cx="167.12" cy="34.59" r="1.98" style="fill:#fff"/><circle cx="174.12" cy="58.93" r="1.98" style="fill:#fff"/><circle cx="181.12" cy="58.93" r="1.98" style="fill:#fff"/><circle cx="174.12" cy="13.46" r="1.98" style="fill:#fff"/><circle cx="181.12" cy="13.46" r="1.98" style="fill:#fff"/><circle cx="174.12" cy="37.93" r="1.98" style="fill:#fff"/><circle cx="182.12" cy="37.93" r="1.98" style="fill:#fff"/><circle cx="188.12" cy="17.46" r="1.98" style="fill:#fff"/><circle cx="191.12" cy="24.46" r="1.98" style="fill:#fff"/><circle cx="189.12" cy="32.46" r="1.98" style="fill:#fff"/><circle cx="188.12" cy="41.92" r="1.98" style="fill:#fff"/><circle cx="191.12" cy="48.92" r="1.98" style="fill:#fff"/><circle cx="189.12" cy="56.92" r="1.98" style="fill:#fff"/></g><g id="N-3" data-name="N"><path id="N-4" data-name="N" d="M133.1,34.07l13.72,26.71a3.49,3.49,0,0,0,3.11,1.9h5.75a1.92,1.92,0,0,0,1.92-1.92V13.41a4.16,4.16,0,0,0-.7-2.4A4.37,4.37,0,0,0,153,9.25h-.13a4.93,4.93,0,0,0-4.77,5V41.28l-15-29.72s-1-2.31-4.46-2.31S124,11.17,124,13v47.9a1.76,1.76,0,0,0,1.75,1.75h5.66a1.83,1.83,0,0,0,1.83-1.84Z" style="fill:#92d2f5;stroke:#77c2ec;stroke-miterlimit:10;stroke-width:2px"/><circle cx="128.61" cy="22.44" r="1.98" style="fill:#fff"/><circle cx="128.61" cy="29.44" r="1.98" style="fill:#fff"/><circle cx="128.61" cy="36.44" r="1.98" style="fill:#fff"/><circle cx="128.61" cy="43.44" r="1.98" style="fill:#fff"/><circle cx="128.61" cy="50.44" r="1.98" style="fill:#fff"/><circle cx="128.61" cy="57.44" r="1.98" style="fill:#fff"/><circle cx="152.89" cy="22.44" r="1.98" style="fill:#fff"/><circle cx="152.89" cy="29.44" r="1.98" style="fill:#fff"/><circle cx="152.89" cy="36.44" r="1.98" style="fill:#fff"/><circle cx="152.89" cy="43.44" r="1.98" style="fill:#fff"/><circle cx="152.89" cy="50.44" r="1.98" style="fill:#fff"/><circle cx="152.89" cy="57.44" r="1.98" style="fill:#fff"/><circle cx="128.61" cy="15.44" r="1.98" style="fill:#fff"/><circle cx="152.89" cy="15.44" r="1.98" style="fill:#fff"/><circle cx="146.28" cy="47.44" r="1.98" style="fill:#fff"/><circle cx="142.28" cy="40.44" r="1.98" style="fill:#fff"/><circle cx="139.28" cy="33.44" r="1.98" style="fill:#fff"/><circle cx="135.28" cy="26.44" r="1.98" style="fill:#fff"/></g><g id="I"><path id="I-2" data-name="I" d="M119,13.84a6.54,6.54,0,0,0-.37-2.73c-.87-1.52-2.64-1.86-4.4-1.86h-25a3.54,3.54,0,0,0-3.6,3.41v.06c0,3.24,2,3.46,2.92,3.46h9.19V56.39H90.34a5.62,5.62,0,0,0-2.73.66,3.13,3.13,0,0,0-1.85,2.78v.68a2.17,2.17,0,0,0,2.17,2.17h29.16a2,2,0,0,0,2-2v-.48a3.73,3.73,0,0,0-3.91-3.89H107.5V16.4h7.2S119,16.33,119,13.84Z" style="fill:#92d2f5;stroke:#77c2ec;stroke-miterlimit:10;stroke-width:2px"/><circle cx="92.14" cy="12.83" r="1.98" style="fill:#fff"/><circle cx="99.14" cy="12.83" r="1.98" style="fill:#fff"/><circle cx="106.14" cy="12.83" r="1.98" style="fill:#fff"/><circle cx="113.14" cy="12.83" r="1.98" style="fill:#fff"/><circle cx="102.5" cy="18.61" r="1.98" style="fill:#fff"/><circle cx="102.5" cy="25.61" r="1.98" style="fill:#fff"/><circle cx="102.5" cy="32.61" r="1.98" style="fill:#fff"/><circle cx="102.5" cy="39.61" r="1.98" style="fill:#fff"/><circle cx="102.5" cy="46.61" r="1.98" style="fill:#fff"/><circle cx="102.5" cy="53.61" r="1.98" style="fill:#fff"/><circle cx="99.14" cy="59.61" r="1.98" style="fill:#fff"/><circle cx="106.14" cy="59.61" r="1.98" style="fill:#fff"/><circle cx="113.14" cy="59.61" r="1.98" style="fill:#fff"/><circle cx="92.14" cy="59.61" r="1.98" style="fill:#fff"/></g><g id="A-3" data-name="A"><path id="A-4" data-name="A" d="M77.91,17A15.58,15.58,0,0,0,63.8,9.2c-8.46,0-12.48,4.86-14.39,9.11a20.18,20.18,0,0,0-1.69,8.25V60.62a2.06,2.06,0,0,0,2.06,2.06h5a1.88,1.88,0,0,0,1.88-1.88V42.66H71V60.55a2.13,2.13,0,0,0,2.13,2.13h5.35a2.3,2.3,0,0,0,2.3-2.3V27.71A20.68,20.68,0,0,0,77.91,17Zm-7,16.21H56.7s-1.32-15.31,7.1-15.31S70.9,33.25,70.9,33.25Z" style="fill:#92d2f5;stroke:#77c2ec;stroke-miterlimit:10;stroke-width:2px"/><circle cx="51.85" cy="30.44" r="1.98" style="fill:#fff"/><circle cx="51.85" cy="37.44" r="1.98" style="fill:#fff"/><circle cx="51.85" cy="44.44" r="1.98" style="fill:#fff"/><circle cx="51.85" cy="51.44" r="1.98" style="fill:#fff"/><circle cx="51.85" cy="58.44" r="1.98" style="fill:#fff"/><circle cx="75.8" cy="30.44" r="1.98" style="fill:#fff"/><circle cx="75.8" cy="37.44" r="1.98" style="fill:#fff"/><circle cx="75.8" cy="44.44" r="1.98" style="fill:#fff"/><circle cx="75.8" cy="51.44" r="1.98" style="fill:#fff"/><circle cx="75.8" cy="58.44" r="1.98" style="fill:#fff"/><circle cx="60.85" cy="37.44" r="1.98" style="fill:#fff"/><circle cx="67.85" cy="37.44" r="1.98" style="fill:#fff"/><circle cx="52.85" cy="23.44" r="1.98" style="fill:#fff"/><circle cx="55.85" cy="16.44" r="1.98" style="fill:#fff"/><circle cx="63.85" cy="13.44" r="1.98" style="fill:#fff"/><circle cx="71.85" cy="16.44" r="1.98" style="fill:#fff"/><circle cx="74.85" cy="23.44" r="1.98" style="fill:#fff"/></g><g id="R"><path id="R-2" data-name="R" d="M38.2,37.54S42.94,34.13,42.94,25,37.65,9.25,31.16,9.25H14.81a5.33,5.33,0,0,0-4.52,1.68c-.95,1.18-.71,5.26-.71,5.26V60.73a1.94,1.94,0,0,0,1.94,2h4.87a2,2,0,0,0,2-2v-18S29.17,41,31.49,44.59c1.76,2.77,1.86,11.87,1.8,16a2.07,2.07,0,0,0,2.06,2.08h4.79a2.25,2.25,0,0,0,2.25-2.25V47.3a14.85,14.85,0,0,0-.83-5,8,8,0,0,0-.69-1.5A15.42,15.42,0,0,0,38.2,37.54ZM18.39,33.25V18.06s14.86-1.66,14.86,7.59S18.39,33.25,18.39,33.25Z" style="fill:#92d2f5;stroke:#77c2ec;stroke-miterlimit:10;stroke-width:2px"/><circle cx="14.03" cy="14.42" r="1.98" style="fill:#fff"/><circle cx="20.99" cy="13.42" r="1.98" style="fill:#fff"/><circle cx="27.95" cy="13.42" r="1.98" style="fill:#fff"/><circle cx="33.95" cy="15.42" r="1.98" style="fill:#fff"/><circle cx="37.4" cy="20.37" r="1.98" style="fill:#fff"/><circle cx="37.4" cy="27.37" r="1.98" style="fill:#fff"/><circle cx="34.4" cy="33.37" r="1.98" style="fill:#fff"/><circle cx="27.95" cy="37.7" r="1.98" style="fill:#fff"/><circle cx="20.95" cy="37.7" r="1.98" style="fill:#fff"/><circle cx="14.03" cy="21.4" r="1.98" style="fill:#fff"/><circle cx="14.03" cy="28.4" r="1.98" style="fill:#fff"/><circle cx="14.03" cy="35.4" r="1.98" style="fill:#fff"/><circle cx="14.03" cy="42.4" r="1.98" style="fill:#fff"/><circle cx="14.03" cy="49.4" r="1.98" style="fill:#fff"/><circle cx="14.03" cy="56.4" r="1.98" style="fill:#fff"/><circle cx="35.43" cy="42.4" r="1.98" style="fill:#fff"/><circle cx="38.03" cy="49.4" r="1.98" style="fill:#fff"/><circle cx="38.03" cy="56.4" r="1.98" style="fill:#fff"/></g></g><g id="Rainbow"><path d="M139.28,72c-.17-2.76,69.86-15.85,122.65-14.47,54.49,1.43,70.66,8.52,110,9.25,28.13.52,68.62-.33,120.75-27.48,1.08-.57,2.2-.08,3.39.2,12.91,3,46.52,9.62,62.87,11.88,1.77.25,2,.88,1.32,1.46-49.89,41.9-129.8,57.47-199.5,45.55-36.25-6.2-51.07-21-110.08-29.76C195.56,60.45,139.43,74.6,139.28,72Z" style="fill:#92d2f5"/><path d="M139.44,71.71c10-2.31,61.34-13.4,119.05-12.08,40.38.93,97.14,17.88,131.22,18.11,46.69.33,101.68-16.07,124.89-34.35-7.55-1.52-14.2-2.93-18.53-3.92-1.19-.28-2.31-.77-3.39-.2-52.13,27.15-92.62,28-120.75,27.48-39.34-.73-55.51-7.82-110-9.25C210.65,56.15,143.1,68.47,139.44,71.71Z" style="fill:#f8abc7"/><path d="M558.94,51.35c-5.43-.75-12.76-2-20.59-3.41-36.21,27.54-95.67,40.4-133.11,41.56-38.15,1.17-74.52-9.94-87.07-13.57s-36.61-12.34-72.61-14.36C206.08,59.35,154,69.62,141.31,72.28c10.55-.54,60.36-10.93,109.37-3.68,59,8.72,73.83,23.56,110.08,29.76,69.7,11.92,149.61-3.65,199.5-45.55C560.94,52.23,560.71,51.6,558.94,51.35Z" style="fill:#ffbe85"/></g></svg>